<svg width="6823" height="2825" viewBox="0 0 6823 2825" fill="none" xmlns="http://www.w3.org/2000/svg">
<path d="M5128.11 2.42271C5338.32 -24.4431 5406.77 180.372 5586.26 209.458C5652.88 220.257 5742.73 198.899 5812.72 192.839C6068.08 170.737 6081.28 387.35 6279.02 470.834C6414.76 528.147 6529.88 476.539 6661.2 592.866C6782.37 700.21 6796.99 844.632 6786.6 998.945C6784.2 1034.45 6768.25 1090.99 6770.62 1122.31L6770.89 1125.7C6777.47 1211.79 6816.95 1303.6 6820.73 1392.19C6823.42 1455.31 6824.84 1518.77 6807.04 1580.28C6753.76 1764.33 6718.19 1962.97 6608.18 2123.75C6572.41 2176.03 6537.59 2229.51 6496.82 2278.09C6427.22 2361.14 6360.58 2389.39 6255.51 2397.67C6229.53 2419.63 6203.27 2442.32 6175.82 2462.58C6005.48 2588.33 5828.13 2571.34 5637.68 2504.63C5599.56 2495.99 5512.99 2444.77 5477.5 2443.88C5382.69 2441.5 5297.41 2436.52 5203.65 2422.2C5204.1 2500.31 5193.61 2535.99 5167.47 2610.1C5075.3 2782.72 4986.3 2740.61 4826.76 2729.34C4763.6 2724.93 4700.18 2725.73 4637.15 2731.74C4578.36 2737.28 4521.1 2740.43 4464.49 2757.8C4397.31 2778.41 4330.71 2810.74 4261.12 2821.11C4181.61 2833.61 4100.41 2813.96 4035.41 2766.5C4012.33 2749.18 3991.42 2729.13 3973.14 2706.8C3910.61 2630.83 3878.53 2534.95 3823.03 2453.24C3768.33 2372.72 3680.39 2300.05 3631.7 2217.58C3607.86 2176.58 3592.24 2131.32 3585.71 2084.33C3554.89 1866.55 3757.12 1689.56 3827.61 1494.36C3850.67 1440.16 3838.03 1379.23 3836.12 1320.5C3832.07 1209.32 3860.46 1064.47 3905.37 962.544C3962.93 831.901 3951.63 804.607 3953.37 671.455C3955.1 538.096 4081.83 367.032 4153.23 256.608C4229.51 138.627 4384.72 93.8511 4518.29 125.727C4612.57 145.85 4673.33 174.114 4773.91 150.954C4917.82 117.815 4976.69 23.5902 5128.11 2.42271Z" fill="#010101"/>
<path d="M4965.66 746.971C4999.32 666.294 5006.61 546.326 4980.94 462.321C4964.18 407.444 4918.08 436.645 4897.93 382.833C4832.78 208.821 5080.71 27.2153 5239.38 96.4623C5351.79 145.522 5408.49 282.663 5457.15 381.553C5451.72 331.348 5447.03 282.159 5435.24 232.904C5493.95 262.716 5537.32 273.259 5602.46 283.571C5604.25 283.852 5603.82 296.847 5612.5 293.899C5645.9 293.759 5684.92 281.235 5718.02 272.657C5810.68 248.665 5910.24 243.084 5986.39 311.468C6029.48 350.172 6043.87 411.423 6079.01 454.924C6084.02 452.142 6084.9 447.518 6087.14 441.945C6100.17 443.555 6156.63 493.834 6174.33 504.988C6198.42 520.171 6219.41 533.026 6245.5 546.342C6283.71 565.934 6324.29 580.464 6366.25 589.563C6434.95 603.895 6507.58 601.715 6567.89 642.095C6665.49 707.441 6685.75 829.143 6670.7 937.767C6669.19 948.64 6669.79 961.85 6662.82 969.858L6652.75 961.511C6639.96 976.223 6587.18 1241.41 6583.13 1277.89C6611.25 1201 6633.78 1132.38 6681.34 1064.5C6679.48 1145.31 6678.33 1219.13 6682.58 1306.62C6690.89 1477.96 6689.59 1665.99 6624.21 1827.74C6621.72 1833.89 6604.43 1831.4 6599.08 1832.46C6579.54 1891.8 6575.64 1969.48 6543.39 2021.81C6533.84 2037.31 6502.37 2058.17 6493.91 2073.61C6492.71 2075.81 6498.14 2085.6 6499.82 2088.82C6494.76 2101.1 6495.46 2097.89 6482.87 2106.49C6471.81 2107.9 6442.08 2107.48 6438.56 2108.65C6450.91 2121.93 6460.35 2119.2 6464 2132.25C6453.58 2141.39 6433.41 2142.74 6420.99 2140.9C6335.49 2128.29 6305.19 2110.96 6217.57 2115.97C6263.01 2132.37 6367.52 2138.73 6391.42 2169.52C6393.88 2186.4 6395.43 2181.43 6389.21 2195.95C6352.54 2227.5 6242.77 2182.35 6198.36 2185.66L6194.16 2189.92L6195.31 2195.24C6164.51 2200.13 6118.43 2153.31 6108.74 2191.9C6097.69 2191.82 6096.95 2188.89 6086.58 2182.11C6074.49 2200.74 6115.28 2229.61 6129.19 2238.54C6231.11 2304.02 6353.18 2262.48 6444.43 2200.92L6457.94 2206.32C6357.94 2351.56 6151.35 2375.43 6037.23 2231.29C6106.06 1944.75 6107.76 1649.42 6132.58 1357.73C6140.26 1267.5 6177.47 1229.26 6246.5 1176.41L6180.62 1194.22C6216.14 1165.97 6244.23 1146.88 6281.82 1121.94C6248.9 1132.9 6221.99 1140.36 6188.31 1148.88C6217.16 1116.01 6255.34 1080.67 6287.12 1049.78C6242.34 1069.12 6196.77 1090.43 6152.2 1110.54C6125.68 973.135 6124 910.745 6142.87 774.026C6116.05 834.451 6087.33 909.424 6057.59 966.894C6052.93 927.199 6049.53 884.962 6045.68 844.986C6020.5 994.964 6040.98 1085.74 6051.27 1230.81C6072.27 1526.96 6056.21 1760.91 5939.56 2034.86C5976.95 1992.87 5985.66 1977.15 6009.24 1925.7C6001.25 2021.45 5986.4 2145.59 5902.33 2207.15C5818.88 2268.24 5692.98 2289.02 5591.74 2276.92C5526.27 2269.09 5488.23 2243.3 5449.44 2191.94C5662 2302.65 5785.82 2276.83 5925.21 2083.63C5798.46 2141.48 5691.09 2102.6 5564.02 2092.07C5638.3 2127.26 5771.97 2142.55 5855.6 2147.85C5781.29 2210.73 5665.96 2220.9 5577.76 2185.5C5452.15 2135.08 5488.2 2035.01 5503.46 1936.63C5511.51 1883.13 5517.38 1829.34 5521.04 1775.37C5531.6 1618.21 5526.11 1445.28 5514.7 1288.04C5507.03 1182.35 5487.91 1071.33 5491.93 965.292C5493.86 914.303 5525.1 852.97 5546.34 805.168C5523.59 828.507 5509.69 843.979 5489.56 869.564C5498.91 760.313 5508.83 711.941 5503.35 595.812C5484.37 659.879 5455.08 729.749 5432.35 794.468C5425.6 783.396 5421.06 774.984 5412 765.605C5409.22 774.546 5409.45 801.7 5409.21 812.573L5338.28 701.893C5440.46 1026.62 5488.67 1324.94 5408.24 1654.53C5397.95 1696.71 5407.35 1770.6 5398.09 1819.18C5383.02 1898.27 5359.92 1966.57 5291.33 2015.5C5171.11 2106.06 4890.01 2096.35 4790.57 1978.22C4747.95 1927.59 4761.29 1828.63 4771.7 1764.63C4785.11 1784.62 4799.18 1802.1 4814.04 1820.96C4755.09 1661.11 4772.28 1527.24 4773.86 1361.2C4775.59 1178.88 4761.86 994.469 4787.61 813.234C4794.97 761.411 4792.45 709.316 4787.36 657.484C4768.81 705.609 4768.93 736.89 4741.59 795.533C4720.5 721.633 4702.64 661.513 4668.01 592.576C4680.51 657.13 4686.24 727.801 4692.68 793.692C4668.8 764.383 4650.38 743.041 4624.15 715.912C4646.47 764.201 4660.93 801.84 4675.63 852.73C4643.07 819.665 4623.64 804.532 4584.41 780.234C4690.65 916.854 4693.88 978.774 4698.75 1149.43C4703.72 1323.63 4727.37 1524.02 4639.4 1683.47C4574.99 1800.21 4390.73 1780.96 4281.92 1759.18C4262.66 1755.32 4200.7 1722.68 4188.6 1725.59L4194.82 1740.37C4184.72 1744.85 4180.67 1730.04 4162.39 1730.61L4160.33 1739.75L4155.91 1741.6C4127.37 1731.17 4068.47 1693.48 4036.43 1676.2C4117.76 1769.76 4129.93 1767.34 4239.98 1818.47C4103.92 1819.53 4034.72 1773.02 3973.85 1651.22C3885.05 1473.54 3896.91 1245.06 3961.18 1061.8C3975.05 1022.38 3991.2 983.802 4009.57 946.262C4079.35 806.076 4100.45 816.52 4056.72 656.882C4049.08 684.094 4044.34 718.166 4039.64 746.6C4021.86 631.453 4035.12 541.67 4113.84 451.688C4117.66 562.879 4140.58 561.41 4208.09 630.842C4255.45 679.544 4242.67 786.385 4236.57 851.318C4356.9 608.807 4206.13 575.907 4236.26 334.411C4222.04 365.569 4213.05 384.55 4203.96 417.301L4194.21 401.227C4224.96 185.135 4392.06 152.194 4570.33 212.644C4691.31 253.668 4776.55 243.992 4890.25 188.479C4858.99 235.48 4794.6 339.439 4809.09 398.849C4829.02 480.6 4938.64 469.95 4960.64 576.931C4974.42 643.92 4970.04 679.462 4965.66 746.971Z" fill="#FEFEFE"/>
<path d="M6220.86 1349.69C6275.78 1350.41 6354.18 1373.28 6410.8 1382.71C6480.14 1394.27 6548.3 1402.26 6617.86 1411.79C6627.85 1428.14 6618.24 1475.44 6595.95 1482.83C6582.62 1475.32 6582.5 1463.37 6577.45 1446C6560.55 1431.45 6506.85 1430.73 6482.21 1428.83C6471.16 1486.59 6463.3 1543.97 6454.94 1602.17C6492.98 1643.9 6458.43 1621.19 6443.84 1667.73C6432.28 1704.53 6429.62 1744.53 6424.14 1782.97C6422.22 1824.15 6439.73 1814.6 6452.18 1847.44C6428.74 1861.19 6269.53 1830.29 6243.86 1813.18L6243.99 1803.36C6253.69 1792.39 6259.43 1798.13 6279.8 1792.38C6299.25 1766.81 6309.09 1654.54 6312.82 1618.64L6284.25 1592.73L6324 1575.16C6331.38 1519.17 6340.42 1463.41 6351.11 1407.95C6315.91 1398.99 6293.45 1393.35 6257.64 1389.05C6246.36 1401.94 6240.37 1409.78 6224.85 1413L6218.42 1406.79C6213.31 1388.24 6217.94 1368.88 6220.86 1349.69Z" fill="#010101"/>
<path d="M5757.08 1211.08C5935.79 1199.82 5915.7 1305.02 5970.68 1320.34C5975.38 1321.66 5979.01 1323.83 5983.21 1326.25C5986.47 1328.13 5986.56 1332.69 5987.51 1336.25L5981.24 1345.32C5961.79 1356.25 5908.45 1378.12 5895.06 1351.55C5896.26 1337.45 5907.15 1330.35 5917.97 1320.52C5808.66 1159.9 5653.87 1318.7 5838.23 1386.83L5840.65 1387.71C5864.67 1446.73 5946.39 1470.56 5950.53 1547C5955.37 1636.23 5893.09 1689.3 5810.95 1698C5702.81 1698.78 5652.63 1675.12 5615.04 1570.25C5602.93 1562.63 5586.39 1554.08 5579.55 1542.14L5583.68 1537.13C5605.26 1526.93 5660.05 1511.24 5673.91 1537.96C5672.16 1552.38 5659.51 1561.01 5648.31 1571.17L5650.85 1576.54C5670.21 1616.9 5691.7 1635.62 5730.67 1651.06C5791.49 1675.18 5836.24 1609.22 5799.6 1558.07C5788.43 1542.46 5784.38 1537.58 5770.48 1525.55C5751.26 1508.93 5743.74 1519.15 5722.64 1512.7C5711.92 1447.99 5656.27 1458.63 5635.57 1380.46C5626.72 1346.72 5631.87 1310.85 5649.85 1280.97C5676.1 1237.05 5711.18 1222.86 5757.08 1211.08Z" fill="#010101"/>
<path d="M5042.02 1044.45C5102.38 1048.52 5164.1 1080.59 5229.88 1070.44C5237.68 1069.25 5240.97 1074.88 5244.71 1080.47C5238.46 1096.49 5232.15 1097.89 5217.55 1110.03C5226.11 1170.65 5238.27 1230.71 5253.97 1289.88C5269.51 1292.89 5281.63 1293.5 5290.52 1305.25C5285.9 1317.24 5273.94 1321.85 5262.06 1328.83C5272.85 1389.85 5286.28 1456.1 5302.62 1515.66C5317.33 1520.17 5333.52 1524.06 5341.2 1537.94L5337.81 1545.11C5315.93 1555.57 5229.86 1561.31 5227.86 1529.82C5234.17 1516.92 5246.32 1514.32 5260.01 1509.02C5255.93 1475.03 5241.75 1369.29 5218.98 1340.55C5216 1336.79 5209.33 1338.94 5203.06 1339.56C5163.73 1349.07 5124.22 1357.77 5084.53 1365.65C5063.28 1400.22 5043.02 1446.92 5029 1485.06C5039.21 1494.35 5049.82 1501.65 5052.56 1514.84L5048.02 1521.29C5024.14 1526.96 4920.03 1503 4887.65 1506.25C4875.55 1507.47 4844.17 1500.66 4848.36 1480.54C4861.1 1470.5 4867.11 1472.98 4885.35 1469.5C4911.38 1440.25 4944.06 1349.73 4961.38 1307.63C4952.89 1297.33 4948.98 1293.69 4945.24 1280.47C4954.28 1268.98 4959.71 1271 4977.28 1266.31C5007.21 1209.54 5033.68 1151.01 5056.55 1091.05C5045.94 1084.73 5040.79 1081.46 5030.92 1073.7C5029.22 1059.69 5032.92 1059.65 5042.02 1044.45ZM5179.93 1138.95C5162.9 1174.47 5107.77 1286.8 5106.01 1319.86L5110.62 1323.81C5121.4 1322.63 5130.54 1321.81 5141.19 1319.4L5219.75 1301.56C5213.5 1272.1 5195.26 1155.99 5179.93 1138.95Z" fill="#010101"/>
<path d="M4215.37 952.118C4327.81 942.805 4456.2 973.675 4570.4 971.066C4607.9 970.215 4596.08 1052.74 4567.44 1048.46C4556.82 1036.64 4558.01 1020.74 4557.2 1004.67C4492.18 1002.43 4427.82 996.965 4361.99 995.256L4353.49 1164.21C4364.85 1165.56 4416.39 1172.5 4425.75 1169.09C4430.98 1167.17 4439.1 1142.93 4456.94 1139.74C4473.24 1156.4 4474.99 1222.2 4447.64 1232.19C4432.85 1224.05 4436.12 1224.17 4426.03 1207.96C4399.92 1204.07 4379.17 1203.05 4352.89 1201.71C4347.24 1251.28 4348.34 1306.32 4344.6 1354.8C4339.25 1424.31 4389.27 1372.51 4385.76 1417.02C4361.4 1429.78 4184.68 1421.14 4165.16 1402.7C4169.79 1390.05 4194.66 1384.82 4199.39 1378.4C4215.4 1356.66 4216.19 1233.05 4217.68 1203.61C4207.51 1194.28 4193.16 1183.05 4193.15 1169.29C4197.78 1167.16 4209.43 1161.66 4211.87 1157.98C4233.89 1124.65 4229.51 1023.78 4230.18 984.886C4208.96 992.069 4200.46 999.276 4184.48 982.442L4185.4 973.254C4193.5 960.316 4201.34 958.294 4215.37 952.118Z" fill="#010101"/>
<path d="M5690.01 315.473C5692.96 321.797 5687.43 325.173 5681.46 334.082C5664.33 359.593 5645.85 397.091 5643.77 427.837L5648.1 432.394C5660.45 426.417 5669.16 410.54 5677.15 398.709C5665.71 461.752 5666.53 483.176 5671.72 548.564C5681.9 509.703 5688.62 490.07 5706.94 454.825C5705.25 548.605 5712.67 633.955 5715.87 726.084C5717.01 758.778 5699.25 857.337 5693.49 892.698C5687.74 929.247 5681.05 965.648 5673.41 1001.85C5662.72 915.039 5673.9 818.675 5653.71 731.657C5617.08 573.811 5519.7 434.755 5690.01 315.473Z" fill="#010101"/>
<path d="M6320.75 698.697C6326.26 706.062 6294.29 755.193 6292.47 782.52C6289.19 831.8 6292.3 844.226 6305.14 890.748L6326.98 835.276C6331.42 885.448 6335.87 931.789 6362.41 977.172C6369.19 988.738 6383.97 991.455 6387.09 1002.88C6403.55 1063.1 6395.96 1135.12 6390.56 1196.86C6388.81 1204.62 6386.57 1212.69 6384.56 1220.42L6381.83 1219.73C6376.71 1172.55 6379.21 1124.79 6364.58 1079.98C6332.72 982.414 6245.59 904.04 6270.8 793.063C6279.91 752.964 6295.98 729.806 6320.75 698.697Z" fill="#010101"/>
<path d="M4781.88 1894.36C4796.31 1902.4 4814.89 1930.2 4827.86 1940.08C4903.92 1997.96 5032.62 2017.4 5124.98 2014.4C5169.18 2012.96 5219.53 2002.05 5263.09 1998.86L5267.73 2003.6L5263.46 2011.23C5153.5 2086.22 4828.77 2047.43 4781.88 1894.36Z" fill="#010101"/>
<path d="M4083.54 916.387C4088.21 946.207 4059.89 987.9 4064.49 1005.8L4075.7 1010.39C4072.34 1043.52 4029.56 1075.19 4032.13 1118.68L4037.7 1122.67L4054.63 1116.03C4056.73 1126.49 4040.9 1140.11 4040.4 1152.47C4038.2 1207.81 4042.74 1220.86 4025.82 1274.28L4024.5 1274.76C4013.27 1270.1 4027.3 1245.94 4014.27 1228.31C4011.27 1227.12 4000.19 1222.61 3999.36 1220.73C3970.7 1155.13 4055.76 951.821 4083.54 916.387Z" fill="#010101"/>
<path d="M5023.14 1835.59C5124.59 1825.42 5203.79 1840.36 5267.07 1925.26L5219.38 1907.05C5180.03 1894.33 5143.7 1892.38 5103.84 1883.59C5084.43 1879.31 5101.24 1881.39 5089.92 1864.73C5047.03 1847.96 4990.62 1849.65 4943.86 1848.12C4973.65 1840.83 4992.46 1838.83 5023.14 1835.59Z" fill="#010101"/>
<path d="M4518.34 288.559C4528.18 293.892 4545.34 314.648 4551.85 324.183C4606.95 404.935 4534.97 483.854 4469.43 526.785L4465.82 524.762C4505.68 452.555 4520.07 429.794 4491.89 349.529L4535.4 396.25C4538.5 346.136 4538.8 334.132 4518.34 288.559Z" fill="#010101"/>
<path d="M5977.73 462.287C6010.52 493.231 5927.46 699.126 5920.15 748.481C5909.02 823.693 5913.83 896.692 5907.4 971.945C5900.54 964.672 5899.66 945.592 5899.17 935.38C5894.95 845.72 5901.5 748.117 5923.84 661.587C5941.24 594.218 5965.14 530.391 5977.73 462.287Z" fill="#010101"/>
<path d="M5085.69 288.566C5095.99 321.731 5105.91 519.99 5087.51 558.735L5081.71 559.561C5077.43 435.671 5022.12 421.57 5085.69 288.566Z" fill="#010101"/>
<path d="M4320.77 1567.43C4395.1 1566.83 4466.12 1589.2 4531.35 1623.24C4486.22 1611.49 4437.91 1599.42 4391.96 1592.68C4318.74 1584.45 4221.93 1591.22 4146.38 1594.91C4211.5 1578.83 4255.12 1573.25 4320.77 1567.43Z" fill="#010101"/>
<path d="M4319.1 1501.03C4376.46 1495.13 4445.04 1509.54 4494.82 1539.44C4448.8 1529.49 4415.95 1524.48 4369.1 1522.43C4302.37 1521.72 4245.75 1532.21 4179.88 1538.27C4230.75 1516.6 4264.74 1507.68 4319.1 1501.03Z" fill="#010101"/>
<path d="M5701.38 2033.76C5758.99 2030.6 5785.8 2038.9 5837.79 2060.89C5813.53 2064.82 5800.1 2062.23 5776.41 2057.94C5738.21 2051.34 5656.52 2048.58 5613.67 2045.32C5643.81 2040.09 5670.94 2037.03 5701.38 2033.76Z" fill="#010101"/>
<path d="M5275.87 239.576C5279.37 242.053 5279.6 242.54 5281.12 246.726C5304.62 311.106 5277.08 360.064 5252.57 417.014L5248.36 421.901C5247.02 418.706 5273.4 261.273 5275.87 239.576Z" fill="#010101"/>
<path d="M6539.01 1024.59L6540.62 1026.45C6551.79 1062.28 6518.58 1165.32 6504.25 1199.76L6501.08 1196.39C6506.56 1145.8 6510.57 1061.93 6539.01 1024.59Z" fill="#010101"/>
<path d="M4433.21 656.348C4450.03 666.717 4466.31 813.063 4469 839.82C4435.64 807.688 4432.05 700.063 4433.21 656.348Z" fill="#010101"/>
<path d="M5366.04 1733.35L5372.03 1741.12C5374.82 1766.74 5366.63 1780.18 5354.79 1803.01L5348.27 1796.25C5342.17 1775.53 5356.57 1752.22 5366.04 1733.35Z" fill="#010101"/>
<path d="M4838.69 1891.59C4862.36 1894.67 4890.8 1912.11 4910.9 1924.63C4878.6 1925.64 4855.67 1921.05 4838.69 1891.59Z" fill="#010101"/>
<path d="M4152.99 2032.75L4156.4 2033.27C4155.88 2040.81 4130.07 2058.47 4121.87 2064.21C4089.53 2086.87 4068.46 2111.79 4044.56 2143.07C4113.65 2095.63 4139.1 2105.51 4206.18 2069.55C4177.72 2097.56 4149.58 2125.88 4121.78 2154.54C4246.27 2081.43 4268.71 2057.95 4415.46 2061.28C4386.6 2073.25 4363.73 2085.57 4336.11 2100.31C4491.15 2079.44 4600.46 2071.99 4756.44 2107.57C5012.47 2165.97 5164.6 2304.88 5102.69 2578.26C5101.27 2570.8 5099.8 2563.34 5098.26 2555.9C5063.27 2386.02 4984.67 2222.83 4785.07 2279.03C4735.33 2293.04 4581.04 2327.19 4545.28 2370.07C4521.88 2398.12 4535.92 2521.56 4545.98 2559.05L4561.34 2600.64C4517.77 2573.6 4489.39 2551.82 4451.26 2517.92C4464.1 2539.48 4483.45 2565.85 4498.14 2586.95C4415.79 2560.07 4387.95 2537.33 4325.53 2476.68L4344 2547.85C4301.23 2521.41 4296.39 2514.13 4267.15 2473.22C4272.15 2507.32 4280.79 2543.04 4288.31 2576.85C4272.79 2563.63 4255.49 2547.19 4240.2 2533.3L4264.51 2606.42C4196.91 2557.56 4184.07 2531.54 4151.2 2454.5C4154.53 2488.4 4167.39 2580.09 4165.5 2607.52C4162.19 2606.24 4146.28 2598.78 4147.13 2598.38C4135.21 2603.96 4141.87 2603.94 4128.13 2600.39C4104.17 2578.23 4082.72 2504.11 4069.86 2469.69C4072.47 2518.42 4079.25 2555.76 4087.42 2603.72C4046.55 2535.33 4040.84 2496.28 4031.57 2419.38C4014.03 2507.62 4028.5 2564.85 4052.78 2649.66L4049.57 2645.98C3948.75 2530.23 3955.08 2470.6 3965.06 2326.33L3957.23 2321.24C3949.9 2303.97 3970.62 2255.49 3977.32 2236.65C3957.69 2249.95 3937.94 2267.28 3919.57 2282.54C3930.52 2241.79 3948.88 2204.16 3967.53 2166.55L3919.76 2192.82C3990.72 2091.65 4032.63 2062.15 4152.99 2032.75Z" fill="#FEFEFE"/>
<path d="M4846.57 2305.76C4926.01 2296.01 4968.6 2319.64 5017.63 2389.32C5053.78 2440.69 5099.18 2578.12 5034.13 2625.05C5007.12 2644.54 4943.84 2626.7 4909.79 2619.14C4861.3 2610.04 4803.84 2603.21 4754.35 2596.3C4718.47 2554.31 4680.97 2506.88 4672.65 2450.79C4655.85 2337.74 4765.07 2318.43 4846.57 2305.76Z" fill="#FEFEFE"/>
<path d="M4959.59 2352.54C5025.93 2380.69 5050.26 2543.52 5031.84 2610.95L5022.01 2613.26C5007.14 2597.19 5006.52 2492.43 5000.18 2463.31C4990.73 2419.82 4978.33 2393.16 4959.59 2352.54Z" fill="#010101"/>
<path d="M3812.25 1788.12C3820.41 1804.28 3794.06 1824.1 3801.98 1852.63C3806.13 1855.14 3808.21 1856.47 3812.74 1858.3L3815.85 1859.53C3810.38 1870.45 3808.87 1869.47 3809.32 1880.98C3829.28 1899.29 3864.63 1885.21 3866.31 1911.37C3855.14 1927.38 3830.69 1944.98 3814.76 1957.69C3799.46 1969.88 3781.91 1979.74 3765.08 1989.81C3779.71 1868.38 3718.68 1919.69 3812.25 1788.12Z" fill="#FEFEFE"/>
<path d="M4633.33 2374.22L4634.67 2375.53C4639.8 2392.99 4608.83 2445.25 4599.47 2463.03L4595.1 2458.84C4582.49 2417.88 4599.58 2396.71 4633.33 2374.22Z" fill="#FEFEFE"/>
<path d="M3858.13 1948.15C3865.38 1950.53 3861.93 1948.74 3867.87 1955.4C3860.55 1977.38 3822.13 2003.33 3803.1 2017.67C3797.28 2019.25 3800.26 2019.3 3794.12 2015.85C3798.52 1988.61 3835.27 1961.47 3858.13 1948.15Z" fill="#FEFEFE"/>
<path d="M4203.96 417.303C4202.94 433.311 4202.89 445.505 4197.98 460.779L4194.48 459.722C4189.64 438.595 4192.27 422.578 4194.21 401.229L4203.96 417.303Z" fill="#EBE9EC"/>
<path d="M6444.42 2200.93L6487.02 2159.36C6479.11 2172.6 6466.82 2194.67 6457.94 2206.32L6444.42 2200.93Z" fill="#AEAEB2"/>
<path d="M1255.94 222.832C1431.08 139.653 1609.31 -36.3253 1811.31 29.9587C1911.65 62.8835 1963.05 140.537 2042.37 189.172C2148.36 185.993 2156.85 158.988 2247.04 127.398C2386 78.7218 2532.96 151.185 2636.67 241.928C2710.52 306.547 2708.44 345.227 2749.15 411.679C2823.88 533.645 2864.66 592.196 2874.74 741.654C2877.29 779.623 2888.19 875.484 2899.61 910.497C2936.25 1022.94 2992.13 1127.04 3002.08 1248.22C3006.07 1296.92 2984.99 1365.95 2984.65 1402.91C2984.06 1468.93 3023.48 1610.75 3035.8 1677.17C3046.11 1732.75 3157.91 1811.05 3198.54 1881.63C3285.46 2025.23 3262.7 2195.13 3170.24 2330.02C3137.06 2378.43 3078.4 2432.11 3050.35 2477.61C2960.98 2622.55 2864.71 2806.61 2669.22 2811.12C2599.62 2812.73 2524.66 2785.39 2455.72 2775.63C2372.3 2762.59 2289.72 2756.67 2206.44 2748.05C2092.64 2736.28 1956.78 2769.12 1848.88 2748.91C1792.52 2738.73 1740.34 2712.31 1698.76 2672.89C1637.84 2614.37 1612.36 2536.32 1610.93 2453.37L1610.87 2448.26L1611.08 2404.58C1544.97 2422.49 1482.27 2427.02 1416.22 2454.44L1413.3 2455.25C1396.02 2460.1 1326.67 2489.84 1319.27 2490.57C1265.95 2495.46 1208.34 2502.79 1155.02 2505.31C1133.36 2506.34 1076.55 2487.6 1061.5 2492.29C891.518 2545.18 774.126 2618.32 600.625 2518.99C515.48 2470.24 453.586 2413.76 391.858 2334.87C378.788 2319.36 326.235 2290.86 314.048 2275.78C234.513 2177.34 138.897 2057.08 100.503 1936.53C79.0761 1869.23 82.5829 1793.65 68.8263 1742.75C30.408 1600.6 -22.2801 1546.14 10.0528 1387.78C22.5593 1314.73 66.2222 1238.73 71.333 1165.85C73.1533 1139.89 48.1484 1070.79 40.4342 1042.12C-17.0389 828.54 75.3168 577.228 300.219 511.824C389.622 485.818 486.93 520.097 573.264 471.948C631.098 443.2 665.58 406.866 703.998 355.712C811.917 212.033 933.748 177.828 1107.67 199.624C1153.43 205.362 1210.34 217.498 1255.94 222.832Z" fill="#010101"/>
<path d="M1330.33 350.614C1363.75 327.052 1438.52 250.601 1469.95 218.494C1575.32 110.871 1712.49 58.6886 1850.26 143.239C1914.39 182.589 1985.99 251.683 2065.15 254.35C2171.01 257.925 2258.56 165.656 2370.14 169.264C2447.44 170.733 2520.58 214.143 2574.55 267.543C2615.98 308.542 2674.39 409.744 2619.37 459.247C2577.98 496.481 2511.3 486.202 2459.36 483.66C2532.79 506.768 2553.25 495.474 2625.56 545.827C2621.15 544.258 2590.93 533.732 2590.09 533.823C2575.88 535.375 2455.02 531.016 2455.91 530.496C2490.49 541.724 2531.84 546.182 2559.52 556.808L2562.91 558.145C2560.3 630.69 2569.45 649.324 2578.59 719.195C2583.04 753.251 2570.78 824.813 2565.16 861.09C2585.92 810.836 2625.78 681.762 2618.58 623.021C2617.56 614.715 2616.4 618.405 2617 604.635C2648.36 542.665 2714.54 611.693 2722.81 465.868C2801.56 592.564 2809.87 633.918 2812.75 781.139L2810.2 806.13L2804.84 808.797C2794.37 723.744 2787.84 682.224 2765.62 598.756C2766.97 652.742 2772.26 711.467 2771.61 764.214C2719.4 699.71 2717.07 689.514 2650.9 630.459C2688.21 728.144 2718.96 820.297 2738.94 923.175C2759.14 1027.27 2788.91 1129.48 2814.16 1232.47C2820.63 1150.33 2801.96 1070.15 2803.22 988.422C2846.42 1058.06 2920.19 1202.36 2901.64 1284.93C2881.62 1374.05 2879.75 1336.36 2912.36 1411.47C2926.75 1444.64 2911.57 1577.03 2904.06 1614.93C2889.47 1683.17 2851.64 1745.78 2790.24 1783.66C2668.86 1858.55 2452.82 1832.09 2315.38 1811.87C2287.62 1807.79 2211.24 1775.47 2180.58 1765.49C2129.15 1592.33 2119.6 1405.31 2119.35 1224.84C2119.3 1184.52 2137.57 1135.98 2136.17 1097.04L2133.01 1095.61C2092.2 1076.78 2102.85 1043.39 2119.43 1010.37C2145.03 959.411 2178.39 913.739 2203.92 862.518L2150.1 892.331C2187.26 831.385 2205.97 815.823 2256.37 764.85C2187.08 790.171 2177.29 801.647 2127.5 856.615C2152.65 775.624 2176.04 744.507 2230.54 678.113C2189.15 708.652 2173.93 726.319 2141.68 766.832C2154.26 712.408 2171.45 667.752 2187.92 615.054C2150.48 660.387 2134.99 694.526 2112.3 749.015C2121.37 701.832 2131.91 654.947 2143.93 608.432C2105.42 683.256 2083.96 742.031 2079.31 827.505C2075.64 894.816 2076.84 936.013 2057.13 1001.77C2042.02 905.061 2056.29 861.767 2050.61 776.128C2045.82 809.73 2041.3 845.949 2034.67 879.006L2024.12 872.946C2014.39 888.855 2041.96 1014.59 2044.69 1040.84C2055.89 1148.8 2031.26 1259.16 2039.1 1368.01C2050.51 1526.44 2132.36 1838.78 2008.54 1963.84C1961.26 2011.6 1889.47 2033.37 1825.96 2048.72C1745.09 2068.27 1615.07 2082.84 1540.24 2037.41C1476.62 1998.8 1450.84 1894.93 1435.22 1827.36C1402.12 1684.06 1346.9 1183.71 1385.67 1051.46C1393.73 1023.94 1444.44 889.73 1428.78 872.31L1418.36 868.859C1414.46 851.72 1425.01 832.318 1432.13 814.989L1422.45 800.59C1408.35 777.672 1453.38 667.355 1460.98 634.835C1414.96 707.702 1391.41 760.161 1368.14 841.92C1361.5 792.384 1364.73 763.405 1369.14 713.647C1344.83 774.27 1344.95 808.698 1349.34 874.151C1350.88 897.194 1353.68 917.85 1349.82 940.645C1343.29 929.978 1341.28 926.123 1336.32 914.647L1329.66 930.325C1340.94 975.056 1354.04 1021.51 1352.5 1067.7C1350.94 1114.59 1317.12 1102.33 1342.74 1140.64C1343.58 1180.04 1328.01 1284.14 1323.19 1327.94C1312.54 1419.13 1308.14 1510.94 1310.02 1602.74C1312.25 1775.14 1354.38 1936.99 1354.58 2098.28L1334.06 2114.77L1335.16 2118.42L1348.59 2120.44C1368.29 2158.32 1312.53 2181.77 1283.51 2186.75C1284.53 2178.78 1290.26 2174.91 1296.52 2167.87C1288.09 2163.6 1251.97 2168.41 1239.64 2169.57C1258.37 2157.91 1279.67 2145.32 1297.54 2132.72C1168.11 2169.64 1080.27 2202.26 945.631 2176.57L936.91 2187.7C831.251 2062.13 800.598 1852.35 792.412 1692.61C785.795 1563.48 796.975 1491.43 740.61 1372.12C777.981 1233.67 782.89 1135.75 806.745 996.777C781.19 1041.95 777.477 1108.36 757.509 1163.34C763.5 1044.79 768.294 1016.43 797.446 901.999C786.95 922.886 759.952 1005.54 752.047 1010.8L751.015 998.47C748.845 991.601 744.885 982.519 742.137 975.609C735.948 1017 732.623 1058.79 732.194 1100.65C671.01 1060.79 631.643 1018.57 576.318 972.661C531.092 935.138 470.899 902.568 418.495 875.662C557.257 991.535 613.688 973.124 687.703 1163.11C679.097 1154.32 669.896 1143.37 658.815 1138.61L662.891 1152.26L660.11 1155.25L613.119 1121.94C645.258 1169.34 680.376 1202.85 720.37 1243.36L715.427 1345.68L671.052 1312.11C682.504 1353.95 704.997 1421.88 709.428 1461.76C725.989 1610.72 742.351 1758.71 764.96 1906.96C783.163 2026.31 778.946 2130.94 838.603 2240.19C750.042 2280.13 656.455 2316.86 557.125 2318.07C440.979 2319.48 403.675 2228.36 342.755 2149.44C215.355 1984.41 205.453 1810.68 170.261 1615.69C151.555 1512.04 121.751 1486.44 124.408 1368.51C148.148 1406.39 176.285 1455.68 193.86 1496.73C220.924 1559.93 219.934 1595.44 262.594 1651.86C244.961 1560.88 177.671 1426.14 136.686 1338.66C137.338 1304.92 144.814 1263.26 149.938 1229.26C157.1 1250.28 174.015 1301.72 191.863 1312.02C215.437 1268.01 135.969 1146.2 159.666 1109.99L168.858 1108.69C184.676 1115.49 280.078 1202.01 299.246 1218.67C218.086 1098.94 113.574 950.816 162.777 798.386C221.898 615.243 397.709 602.364 558.421 568.028C597.771 559.615 643.261 537.695 678.965 519.367C669.17 541.162 644.507 593.58 658.311 615.557C661.604 614.831 667.908 605.196 669.335 602.166C710.287 515.437 753.284 428.642 815.178 354.511C891.214 261.235 1017.65 241.148 1130.28 265.215C1226.14 285.698 1280.15 302.045 1379.35 295.283C1339.41 330.14 1320.17 337.099 1270.02 353.545L1330.33 350.614Z" fill="#FEFEFE"/>
<path d="M1329.66 930.322C1323.82 910.029 1310.6 870.128 1315.28 850.553L1315.21 850.561L1314.49 861.054L1320.47 861.368L1336.32 914.644L1329.66 930.322Z" fill="#19191A"/>
<path d="M1465.28 743.885C1456.93 762.205 1441.44 798.861 1432.13 814.985L1422.45 800.587C1437.76 782.713 1451.46 762.981 1465.28 743.885Z" fill="#19191A"/>
<path d="M742.152 975.605C744.141 959.927 745.296 946.528 750.123 931.469L753.011 931.527C757.318 952.455 753.275 976.877 751.031 998.466C748.861 991.597 744.9 982.516 742.152 975.605Z" fill="#19191A"/>
<path d="M2373.51 1013.9C2480.6 995.496 2619.58 1031.79 2665.46 1137.43C2683.77 1179.61 2674.44 1197.54 2712.62 1228.04C2709.77 1239.09 2701.08 1242.48 2690.19 1251.07C2680.79 1397.38 2609.39 1458.59 2472.29 1486.23C2426.21 1494.25 2297.52 1511.03 2268.39 1465.95L2273.13 1459.64C2286.06 1453.31 2299.36 1456.75 2313.94 1458.59C2310.31 1399.47 2307.24 1342.51 2299.99 1283.7C2287.32 1274.02 2281.28 1271.72 2276.61 1258.07C2279.66 1246.08 2291.8 1240.39 2302.5 1233.41C2293.44 1181.17 2289.88 1122.94 2285.41 1069.76C2269.78 1079.2 2253.56 1093.23 2237.15 1081.04C2245.34 1033.04 2333.48 1019.3 2373.51 1013.9ZM2421.55 1042.94C2421.38 1092.96 2425.24 1174.55 2432.33 1224.01L2467.98 1246.01L2436.52 1270.41C2441.38 1332.48 2446.84 1395.34 2450.84 1457.4C2498.93 1444.75 2549.93 1432.35 2589.67 1400.56C2616.27 1374.59 2668.71 1294.37 2652.49 1256.43C2638.58 1243.99 2637.53 1247.23 2635.16 1232.52C2641.51 1224.68 2645.54 1219.76 2650.91 1210.98C2630.46 1083.57 2534.89 1047.74 2421.55 1042.94Z" fill="#010101"/>
<path d="M600.47 1381.46C607.319 1380 611.519 1381.54 618.334 1383L621.115 1390.15C616.643 1403.36 609.216 1408.23 598.671 1417.41C602.5 1470.25 611.461 1522.6 625.439 1573.69C637.799 1579.61 649.277 1582.92 655.16 1594.41C649.648 1607.81 647.486 1606.3 634.457 1616.58C640.695 1657.24 651.406 1749.7 670.433 1789.05C675.59 1799.7 704.577 1783.45 706.591 1814.86C694.18 1838.55 618.953 1847.05 604.579 1826.39C611.494 1811.21 612.789 1813.7 627.964 1802.39C623.26 1747.61 608.961 1680.08 598.754 1625.14C538.791 1648.22 496.833 1654.37 433.323 1658.28C444.685 1707.2 451.014 1780.67 467.632 1829.28C469.373 1834.37 489.885 1836.79 497.832 1838.37L501.594 1846.35C488.103 1871.31 377.048 1886.25 345.784 1894.16C329.207 1897.78 321.649 1901.96 314.957 1884.91C321.162 1864.74 318.786 1871.02 338.16 1855.59C328.423 1797.36 318.934 1749.04 306.029 1691.19C295.839 1684.92 287.051 1680.66 280.747 1670.37C284.056 1656.63 286.242 1658.05 297.687 1646.31C292.464 1592.83 283.775 1539.74 271.662 1487.38C259.558 1480.33 244.804 1473.38 237.469 1461.91L239.985 1454.12C250.795 1446.27 407.925 1419.24 425.03 1420.99L428.743 1429.94C425.261 1442 410.854 1450.66 400.301 1458.63C402.867 1509.66 416.424 1572.67 426.045 1623.72C484.836 1623.63 534.434 1609.03 589.784 1592.24C581.822 1532.58 576.071 1489.03 562.869 1430.47C543.742 1423.62 537.76 1424.55 525.903 1410.42L527.842 1401.52C547.15 1386.34 576.219 1384.62 600.47 1381.46Z" fill="#010101"/>
<path d="M1057.37 1248.33C1061.88 1247.82 1066.39 1247.43 1070.91 1247.17C1168.39 1241.51 1198.82 1297.12 1229.56 1377.89C1242.2 1411.1 1247.65 1412.34 1272.99 1436.1C1270.24 1446.63 1263.16 1449.61 1253.44 1458.03C1251.06 1567.55 1216.05 1676.31 1089.94 1698.75C986.568 1715.09 902.008 1642.14 870.513 1548.7C862.558 1525.09 861.758 1530.49 846.873 1516.19C844.48 1513.86 842.07 1511.56 839.645 1509.27L840.28 1499.67C843.457 1496.71 854.348 1486.66 854.769 1482.82C865.966 1381.25 881.834 1278.81 999.399 1251.01C1004.77 1277.17 982.352 1302.09 980.495 1333.5L980.338 1336.45C978.317 1371.77 985.834 1423.76 990.042 1460.13C1001.53 1466.41 1012.88 1471 1019.61 1482.01C1018.15 1497.68 1014.33 1497.43 1002.66 1512.11C1007.76 1550.63 1012.35 1618.91 1032.43 1650.28C1052.75 1682.04 1130.73 1656.3 1154.46 1635.41C1207.93 1588.31 1210.83 1531.2 1216.51 1466.54C1203.58 1455.08 1197.43 1453.68 1193.5 1439.71L1205.35 1420.78C1208.46 1369.4 1149.19 1280.22 1094.7 1277.13C1066.53 1275.53 1038.9 1288.36 1035.69 1318.09C1046.43 1342.29 1077.88 1345.93 1080.99 1365.01C1026.91 1415.09 949.412 1308.06 1057.37 1248.33Z" fill="#010101"/>
<path d="M1679.69 1096.8C1690.37 1094.42 1698.3 1096.53 1706.86 1101.8L1708.16 1111.12C1699.04 1128.56 1700.14 1124.02 1680.18 1135.18C1679.32 1198.52 1685.27 1242.74 1693.05 1305.39C1709.64 1314.09 1712.77 1312.41 1721.49 1326.12C1717.24 1340.82 1714.51 1339.84 1702.25 1352.21C1707.12 1406.47 1713.85 1467.89 1723.97 1521.09C1794.22 1524.59 1836.94 1522.55 1904.54 1505.07C1898.68 1484.32 1892.8 1475.43 1907.08 1458.23C1926.87 1457.21 1941.34 1473.01 1941.58 1491.79C1942.37 1553.84 1854.04 1556.44 1810.42 1559.44C1756.88 1563.87 1703.13 1555.27 1648.28 1562.56C1616.74 1566.76 1568.92 1598.98 1549.66 1575.78L1551.01 1566.89C1560.7 1553.33 1570.06 1548.7 1584.21 1539.74C1582.97 1488.67 1573.88 1421.72 1568.02 1369.62C1555.2 1362.85 1541.29 1354.57 1528.52 1347.36L1563.97 1326.41C1560.23 1275.07 1560.25 1223.94 1551.41 1173.09C1544.32 1132.28 1514.81 1160.16 1508.54 1130.15C1525.11 1106.11 1649.04 1099.85 1679.69 1096.8Z" fill="#010101"/>
<path d="M1867.79 193.771C1936.52 239.452 1979.1 289.805 2036.59 329.475C2058.76 317.265 2080.71 304.682 2102.45 291.729C2087.39 307.82 2055.99 343.139 2039.78 354.664C2032.52 353.17 2029.38 352.493 2022 352.146L2021.76 354.152C2020.94 360.328 2021.09 361.995 2017.9 367.535C2012.44 362.441 2008.48 358.379 2003.46 352.856L2000.7 355.415C2007.61 408.138 2020.3 469.389 1984.97 514.269C1964.05 540.845 1934.76 562.591 1912.53 589.357C1893.86 611.838 1876.59 667.772 1854.34 680.486C1838.4 670.1 1833.44 650.658 1826.73 632.197C1818.5 648.214 1809.86 668.268 1796.9 680.148L1791.06 678.488C1776.99 640.362 1852.6 564.705 1816.64 537.575L1819.55 534.025L1832.36 535.024C1838.19 519.775 1834.99 519.28 1848.69 508.407C1836.18 484.828 1764.55 472.196 1737.54 457.69C1797.52 457.459 1816.9 458.235 1871.53 487.577C1866.47 468.754 1861.7 435.919 1852.43 423.635C1844.77 419.3 1836.58 414.214 1828.41 411.201L1831.78 402.995L1880.98 420.365C1994.32 345.327 1933.29 276.794 1867.79 193.771Z" fill="#010101"/>
<path d="M1869.72 1926.37L1874.8 1925.85L1876.9 1931.4C1885.87 1938.7 1890.12 1935.76 1904.58 1935.32C1892.95 1946.76 1871.33 1953.91 1856.84 1961.44C1771.8 2005.61 1704.32 1997.87 1611.61 2004.73C1713.29 2027.95 1742.75 2031.66 1845.32 2016.05C1830.37 2023.96 1815.36 2028.62 1799.43 2034.07C1742.65 2053.15 1637.03 2065.76 1580.86 2041.65C1566.24 2035.38 1539.98 2027.4 1533.68 2013.06C1593.23 2008.79 1580.09 1983.26 1617.48 1974.53C1698.53 1955.61 1787.52 1938.86 1869.72 1926.37Z" fill="#010101"/>
<path d="M495.729 2082.54L495.845 2085.84C488.674 2098.61 461.907 2119.4 449.604 2129.91C485.712 2120.22 522.835 2111.19 559.133 2101.93C518.899 2119.04 478.335 2134.28 442.929 2159.78C490.935 2158.53 543.439 2144.72 592.831 2137.9C557.119 2153.19 453.647 2176.97 434.843 2194.52C478.047 2206.95 503.626 2204.17 548.166 2202.35C528.768 2209.39 504.212 2217.13 487.098 2227.86L487.503 2233.77C497.413 2237.59 505.177 2239.68 513.239 2246.56C469.581 2299.32 385.838 2178.89 361.785 2147.18C403.083 2121.95 451.023 2100.84 495.729 2082.54Z" fill="#010101"/>
<path d="M1138.07 418.344C1202.95 446.711 1239.92 484.854 1286.78 538.171C1275.18 563.599 1254.5 629.614 1238.06 639.398C1228.66 638.085 1225.07 637.59 1216.04 634.807C1202.48 627.402 1197.51 624.132 1182.27 620.855C1176.69 606.894 1172.58 599.934 1175.35 585.205C1184.79 572.813 1189.7 569.288 1201.73 559.595L1200.37 553.857L1179.97 543.001L1180.23 538.41C1187.54 538.212 1193.1 538.27 1200.4 538.675L1200.61 534.084L1189.24 522.931L1192.12 518.662L1210.63 521.998L1215.29 518.637C1212.53 497.056 1155.68 438.034 1138.07 418.344Z" fill="#010101"/>
<path d="M2423.25 1695.55C2454.02 1696.28 2646.6 1721.98 2670.5 1729.01L2669.32 1733.51C2615.93 1755.17 2642.13 1757.75 2578.12 1754.12L2568.23 1751.35C2536.05 1742.93 2512.04 1738.38 2479.14 1732.88C2467.91 1731.21 2464.46 1730 2453.77 1726.08C2468.6 1721.12 2510.28 1732.51 2539.92 1727.92C2500.92 1717.55 2462.02 1706.76 2423.25 1695.55Z" fill="#010101"/>
<path d="M2479.14 1732.88C2467.91 1731.21 2464.46 1729.99 2453.77 1726.07C2468.6 1721.12 2510.28 1732.5 2539.92 1727.92C2554.03 1729.43 2571.85 1730.11 2584.02 1736.59L2584.98 1741.62C2578.98 1745.95 2575.39 1749.22 2568.23 1751.35C2536.05 1742.92 2512.04 1738.37 2479.14 1732.88Z" fill="#19191A"/>
<path d="M1264.58 2087.24L1266.55 2089.17L1263.66 2095.12C1193.76 2137.28 1105.97 2138.69 1027.14 2133.7L1024.67 2131.03L1026.36 2125.05C1039.14 2119.55 1050.99 2118.98 1064.72 2118.31C1132.62 2115.01 1198.07 2100.78 1264.58 2087.24Z" fill="#010101"/>
<path d="M1028.11 579.424C1078.48 593.484 1121.13 606.52 1170.15 624.576L1212.44 645.059C1222.54 651.21 1239.46 664.427 1249.59 671.825C1178.9 655.172 1087.25 622.471 1028.11 579.424Z" fill="#010101"/>
<path d="M1572.29 268.619C1581.39 278.014 1578.83 408.773 1584.65 434.589C1587.29 446.321 1598.34 532.266 1596.35 543.089C1565.55 454.56 1553.27 360.756 1572.29 268.619Z" fill="#010101"/>
<path d="M460.074 939.693C497.601 955.058 526.093 990.22 551.417 1020.1C480.232 1009.37 476.503 1010.54 460.074 939.693Z" fill="#010101"/>
<path d="M1043.35 920.209L1046.94 923.354C1060.28 955.487 1038.64 1104.5 1030.68 1145.01L1027.49 1144.67C1020.2 1119.61 1039.47 954.95 1043.35 920.209Z" fill="#010101"/>
<path d="M1201.38 1979.9L1215.92 1979.14C1204.71 1994.72 1076.82 2017.63 1051.4 2022.5C1048.42 2022.95 1040.71 2022.14 1037.29 2021.9C1062.6 2000.35 1164.86 1985.5 1201.38 1979.9Z" fill="#010101"/>
<path d="M1766.99 1711.82C1784.4 1710.08 1822.78 1707.54 1838.95 1713.67C1827.79 1717.61 1721.7 1727.24 1698.94 1730.01C1690.06 1733.21 1666.93 1736.39 1652.55 1740.62L1646.72 1731.24L1637.39 1737.74C1661.04 1719.03 1735.52 1713.65 1766.99 1711.82Z" fill="#AEAEB2"/>
<path d="M1159.49 662.045C1177.96 658.71 1226.99 672.233 1220.56 695.424L1209.01 697.967C1190.34 693.946 1143.46 686.516 1133.04 672.15C1140.44 662.648 1144.61 664.836 1159.49 662.045Z" fill="#010101"/>
<path d="M1252.08 2021.54L1252.9 2023.95C1195.39 2049.82 1105.68 2069.28 1043.41 2077.69L1040.6 2076.16C1055.72 2065.89 1221.04 2028.96 1252.08 2021.54Z" fill="#010101"/>
<path d="M1193.05 1930.95L1210.54 1930.2C1140.86 1946.76 1086.87 1957.75 1018.15 1979.38C1010.57 1981.56 1005.94 1983.94 998.629 1981.38C1023.05 1953.49 1154.75 1934.68 1193.05 1930.95Z" fill="#010101"/>
<path d="M1782.45 1662.98C1795.57 1662.14 1818.41 1660 1830.7 1661.16L1828.82 1665.12C1772.13 1674.53 1714.18 1679.59 1658.85 1692.85C1644.81 1695.69 1636.94 1696.93 1622.68 1698.04C1647.9 1682.29 1749.04 1666.01 1782.45 1662.98Z" fill="#19191A"/>
<path d="M2522.04 1637.59C2548.31 1636.31 2597.38 1633.06 2622.53 1639.66L2620.94 1643.31L2626.05 1641.33C2607.1 1647.35 2582.37 1646.89 2562.09 1647.58C2520.59 1648.59 2479.07 1648.45 2437.58 1647.19C2468.45 1640.29 2490.35 1639.48 2522.04 1637.59Z" fill="#19191A"/>
<path d="M1870.75 1869.12C1854.55 1877.39 1766.65 1884.6 1742.82 1887.43C1717.48 1887.4 1699.61 1890.67 1670.92 1889.97L1670.3 1887.85C1703.15 1880.05 1743.25 1877 1777.32 1873.48C1799.01 1870.24 1846.98 1869.91 1870.75 1869.12Z" fill="#585756"/>
<path d="M2467.77 1569.08C2502.94 1564.64 2516.67 1564 2552.78 1569.37L2553.47 1572.33L2546.84 1571.61L2549.94 1573.67L2532 1572.76C2492.13 1576.45 2464.28 1578.55 2423.89 1578.37L2421.67 1570.16L2467.77 1569.08Z" fill="#19191A"/>
<path d="M2467.77 1569.08C2502.93 1564.64 2516.67 1564 2552.78 1569.37L2553.47 1572.33L2546.84 1571.61L2549.93 1573.67L2532 1572.76C2515.07 1570.93 2486.13 1570.36 2467.77 1569.08Z" fill="#585756"/>
<path d="M2849.29 1222.45C2874.15 1256.91 2878.43 1288.23 2880.25 1328.58C2863.93 1316.95 2853.06 1244.4 2849.29 1222.45Z" fill="#010101"/>
<path d="M632.228 2226.18C635.388 2225.7 635.017 2226.33 638.837 2227.78C625.784 2242.57 575.863 2258.04 556.159 2264.2C552.413 2264.95 552.924 2264.38 548.691 2263.18C557.397 2249.04 614.595 2232.28 632.228 2226.18Z" fill="#19191A"/>
<path d="M1048.27 522.188C1080.14 522.303 1114.04 532.053 1138.34 553.379C1105.63 547.665 1077.73 536.99 1048.27 522.188Z" fill="#010101"/>
<path d="M821.753 1486.5L823.758 1488.54C829.74 1508.16 813.576 1569.78 808.262 1592.21L806.463 1591.43C801.727 1579.86 818.568 1502.62 821.753 1486.5Z" fill="#7B7C82"/>
<path d="M1100.64 686.448C1130.16 685.532 1167.67 700.591 1193.48 714.634C1167.54 714.981 1124.71 696.496 1100.64 686.448Z" fill="#19191A"/>
<path d="M2477.94 1749.42C2502.68 1748.81 2548.29 1757.87 2570.55 1768.36L2568.22 1769.84C2536.18 1769.04 2507.69 1760.25 2477.94 1749.42Z" fill="#424143"/>
<path d="M1064.1 1077.33C1068.26 1097.47 1055.35 1138.46 1049.2 1158.37C1041.32 1139.15 1056.74 1097.33 1064.1 1077.33Z" fill="#424143"/>
<path d="M844.48 581.744C858.004 589.034 857.74 634.583 858.582 650.137C845.388 639.115 845.636 598.867 844.48 581.744Z" fill="#424143"/>
<path d="M1765.32 385.303C1793.16 390.62 1805.2 393.394 1831.78 402.995L1828.41 411.202C1809.08 404.184 1784.74 393.328 1765.32 385.303Z" fill="#424143"/>
<path d="M2423.87 1578.37C2412.45 1578.8 2407.34 1579.85 2397.11 1574.15C2405.6 1568.04 2409.28 1570.25 2421.65 1570.16L2423.87 1578.37Z" fill="#7B7C82"/>
<path d="M1807.97 2644.27C1750.21 2621.36 1699.85 2555 1693.72 2496.56C1664.78 2221.21 1898.98 2153.08 2123.16 2129.22C2142.42 2126.05 2167.89 2106.45 2185.19 2102.22C2302.06 2073.61 2439.02 2050.36 2555.88 2088.93C2591.57 2100.71 2622.01 2118.48 2657.11 2130.74C2668.97 2134.89 2683.29 2129.59 2695.41 2129.39C2775.22 2144.2 2869.28 2238.25 2878.21 2315.99C2887.85 2399.83 2856.32 2489.76 2812.85 2551.45C2820.14 2528.15 2831.13 2492.77 2831.31 2469.02L2826.92 2464.72C2821.79 2471.68 2818.71 2477.39 2811.1 2481.23C2808.53 2476.95 2797.89 2410.68 2795.14 2398.24C2793.81 2422.72 2785.86 2533.33 2765.61 2542.68C2760.72 2530.84 2763.22 2519.58 2764.4 2506.43L2755.94 2490.56C2749.17 2516.76 2743.87 2537.99 2734.4 2563.43C2733.5 2539.92 2733.15 2507.89 2730.8 2485.14C2723.23 2511.25 2713.21 2549.92 2702.29 2573.61L2697.37 2574.77C2690.81 2555.46 2695.97 2533.45 2695.87 2512.77C2683.75 2544.03 2675.85 2569.84 2666.34 2602.08C2664.88 2576.56 2663.68 2554.86 2664.17 2529.24C2634.42 2615.68 2641.23 2582.1 2563.89 2605.74C2556.38 2608.04 2562.62 2630.65 2533.99 2613.14C2521.91 2614.59 2511.51 2627.65 2502.45 2636.8C2492.66 2585.79 2469.51 2493.05 2452.76 2443.24C2456.16 2486.25 2488.44 2598.17 2469.02 2626.14C2460.17 2627.78 2457.61 2625.92 2448.78 2622.71C2435.99 2634.08 2432.05 2645.2 2420.11 2649.2L2410.13 2643.77C2394.2 2650.32 2382.71 2664.02 2362.58 2652.92C2281.41 2608.14 2268.03 2475.45 2266.64 2392.28C2266.12 2361.74 2270.91 2334.63 2266.35 2307.05C2263.92 2319.88 2265.48 2325.74 2257.31 2332.06C2253.49 2323.11 2250.19 2314.36 2246.74 2305.29L2242.74 2306.52C2227.5 2365.54 2238.03 2547.25 2215.34 2569.82L2209.08 2569.09C2200.15 2538.23 2196.08 2454.96 2185.9 2406.86C2186.07 2476.97 2198.52 2528.23 2167.19 2590.97C2081.04 2613.58 1933.94 2625.71 1847.55 2614.33C1797.66 2532.92 1782.54 2447.28 1800.69 2353.68C1822.49 2241.31 1975.06 2304.24 2045.08 2319.92C2075.85 2326.81 2108.85 2339.31 2137.27 2352.45C2153.21 2359.92 2190.4 2393.09 2198.97 2395.2C2199.09 2382.48 2196.54 2377.47 2192.21 2365.86C2123.98 2320.16 1867.98 2202.91 1807.47 2304.59C1753.13 2395.92 1777.43 2543.31 1812.48 2640.79L1807.97 2644.27Z" fill="#FEFEFE"/>
<path d="M2755.94 2490.55C2757.03 2479.93 2756.69 2465.45 2763.36 2458.58C2768.2 2471.28 2767.19 2493.65 2764.4 2506.43L2755.94 2490.55Z" fill="#19191A"/>
<path d="M2556.77 2291.15C2578.37 2330.98 2615.59 2520.93 2612.78 2569.65C2597.75 2514.55 2563.69 2344.25 2556.77 2291.15Z" fill="#19191A"/>
<path d="M1823.51 2381.91C1827.37 2411.19 1827.19 2450.9 1823.83 2480.29C1812.14 2459.14 1815.86 2405.21 1823.51 2381.91Z" fill="#AEAEB2"/>
<path d="M2422.95 2299.2C2439.29 2314.46 2447.27 2361.6 2451.96 2383.86C2438.05 2373.68 2425.5 2316.81 2422.95 2299.2Z" fill="#424143"/>
<path d="M2280.29 2426.97C2290.1 2443.12 2298.89 2500.48 2300.11 2520.41C2286.18 2505.04 2280.92 2448.25 2280.29 2426.97Z" fill="#7B7C82"/>
<path d="M2211.67 2601.25C2129.3 2650.84 1895.89 2689.34 1807.98 2644.27L1812.48 2640.79C1915.71 2658.65 2107.95 2628.81 2211.67 2601.25Z" fill="#EBE9EC"/>
<path d="M1041.2 2228.91C1123.73 2242.02 1179.28 2234.27 1258.93 2206.33C1284.56 2197.34 1317.84 2184.16 1343.75 2179.4C1247.22 2243.34 1140.36 2248.8 1027.24 2235.9L1041.2 2228.91Z" fill="#7B7C82"/>
<path d="M936.922 2187.7L945.644 2176.57C971.677 2200.18 1007.54 2219.05 1041.2 2228.91L1027.24 2235.9C984.804 2221.28 970.901 2217.21 936.922 2187.7Z" fill="#EBE9EC"/>
<path d="M2812.76 781.137C2816.57 813.12 2816.17 839.705 2814.98 871.911C2811.65 854.648 2805.06 825.405 2804.86 808.794L2810.22 806.128L2812.76 781.137Z" fill="#AEAEB2"/>
</svg>
